<svg width="135" height="135" viewBox="0 0 135 135" fill="none" xmlns="http://www.w3.org/2000/svg">
<path d="M67.5 102.797L44.1562 116.859C43.125 117.516 42.0469 117.797 40.9219 117.703C39.7969 117.609 38.8125 117.234 37.9687 116.578C37.125 115.922 36.4687 115.103 36 114.12C35.5312 113.134 35.4375 112.031 35.7187 110.813L41.9062 84.2344L21.2344 66.375C20.2969 65.5313 19.7119 64.5694 19.4794 63.4894C19.2431 62.4131 19.3125 61.3594 19.6875 60.3281C20.0625 59.2969 20.625 58.4531 21.375 57.7969C22.125 57.1406 23.1562 56.7188 24.4687 56.5313L51.75 54.1406L62.2969 29.1094C62.7656 27.9844 63.4931 27.1406 64.4794 26.5781C65.4619 26.0156 66.4688 25.7344 67.5 25.7344C68.5313 25.7344 69.54 26.0156 70.5263 26.5781C71.5088 27.1406 72.2344 27.9844 72.7031 29.1094L83.25 54.1406L110.531 56.5313C111.844 56.7188 112.875 57.1406 113.625 57.7969C114.375 58.4531 114.938 59.2969 115.313 60.3281C115.688 61.3594 115.759 62.4131 115.526 63.4894C115.29 64.5694 114.703 65.5313 113.766 66.375L93.0937 84.2344L99.2812 110.813C99.5625 112.031 99.4688 113.134 99 114.12C98.5313 115.103 97.875 115.922 97.0313 116.578C96.1875 117.234 95.2031 117.609 94.0781 117.703C92.9531 117.797 91.875 117.516 90.8437 116.859L67.5 102.797Z" fill="#F1CB00"/>
</svg>
